<svg width="155" height="150" viewBox="0 0 155 150" fill="none" xmlns="http://www.w3.org/2000/svg">
<path d="M76.7989 0C34.3895 0 0 34.3835 0 76.7989C0 110.731 22.0052 139.519 52.5199 149.674C56.3579 150.384 57.7674 148.008 57.7674 145.979C57.7674 144.148 57.6957 138.098 57.6632 131.681C36.297 136.326 31.7887 122.619 31.7887 122.619C28.2952 113.742 23.2616 111.382 23.2616 111.382C16.294 106.616 23.7868 106.713 23.7868 106.713C31.499 107.255 35.5598 114.628 35.5598 114.628C42.4094 126.369 53.5258 122.974 57.9083 121.012C58.5974 116.048 60.588 112.66 62.7841 110.743C45.7264 108.8 27.7941 102.215 27.7941 72.788C27.7941 64.4037 30.7942 57.5523 35.7074 52.1742C34.9099 50.2396 32.2814 42.4287 36.4512 31.8501C36.4512 31.8501 42.9003 29.786 57.5764 39.7224C63.702 38.0203 70.2721 37.1674 76.7989 37.1385C83.3256 37.1674 89.9006 38.0203 96.0382 39.7224C110.697 29.786 117.137 31.8501 117.137 31.8501C121.317 42.4287 118.687 50.2396 117.89 52.1742C122.814 57.5523 125.793 64.4031 125.793 72.788C125.793 102.285 107.827 108.78 90.7263 110.681C93.4808 113.065 95.9352 117.739 95.9352 124.903C95.9352 135.179 95.8461 143.449 95.8461 145.979C95.8461 148.023 97.2284 150.418 101.122 149.663C131.62 139.497 153.597 110.72 153.597 76.7989C153.597 34.3835 119.212 0 76.7989 0Z" fill="#6B7280"/>
<path d="M28.7638 109.402C28.5952 109.783 27.994 109.898 27.4477 109.636C26.8906 109.386 26.5774 108.865 26.7581 108.482C26.9237 108.089 27.5248 107.98 28.0808 108.244C28.6391 108.494 28.9572 109.019 28.7638 109.402ZM32.5416 112.772C32.1753 113.112 31.4592 112.954 30.9731 112.418C30.4708 111.882 30.3768 111.167 30.7485 110.822C31.1261 110.482 31.8206 110.641 32.3241 111.177C32.8265 111.718 32.924 112.43 32.541 112.773M35.1333 117.085C34.6623 117.412 33.8926 117.106 33.4173 116.423C32.9469 115.74 32.9469 114.921 33.4276 114.593C33.9046 114.264 34.6623 114.56 35.1442 115.237C35.614 115.932 35.614 116.751 35.1327 117.086M39.5158 122.08C39.0948 122.544 38.1986 122.42 37.542 121.786C36.871 121.167 36.6837 120.288 37.1059 119.824C37.5318 119.359 38.4335 119.49 39.0948 120.118C39.7616 120.736 39.9646 121.621 39.5158 122.08ZM45.1801 123.767C44.9951 124.368 44.1314 124.641 43.2617 124.386C42.3931 124.123 41.8245 123.418 41.9998 122.81C42.1805 122.205 43.0478 121.92 43.9242 122.193C44.7916 122.455 45.3608 123.155 45.1801 123.767ZM51.6273 124.482C51.649 125.115 50.9111 125.64 49.998 125.652C49.0795 125.672 48.3368 125.159 48.3272 124.536C48.3272 123.897 49.0482 123.376 49.9661 123.361C50.8792 123.343 51.6273 123.852 51.6273 124.482ZM57.9601 124.239C58.0697 124.857 57.4349 125.492 56.5284 125.66C55.6369 125.823 54.8118 125.442 54.6979 124.829C54.5871 124.196 55.234 123.561 56.1236 123.397C57.0319 123.239 57.8444 123.611 57.9601 124.239Z" fill="#6B7280"/>
</svg>
